# xmcd CD database file
#
# Track frame offsets:
#	150
#	14830
#	27674
#	49116
#	64967
#	84180
#	95165
#	110400
#	123780
#	139623
#	160183
#	178298
#	193895
#	206938
#	226654
#	248377
#
# Disc length: 3496 seconds
#
# Revision: 0
# Processed by: cddbd v1.5.2PL0 Copyright (c) Steve Scherf et al.
# Submitted via: CDex 1.70beta2
#
DISCID=e00da610
DTITLE=Everett Smithson Band - Take The Ride
DYEAR=2009
DGENRE=Blues
TTITLE0=Street and Parks
TTITLE1=Iya
TTITLE2=Pistol
TTITLE3=Bonton Roulette
TTITLE4=I Flunked Again
TTITLE5=Juvenile Delinquent
TTITLE6=Big Brother
TTITLE7=Fishman Blues
TTITLE8=Up Napoleon Up
TTITLE9=Diggin My Potatoes
TTITLE10=Botherin' That Thing
TTITLE11=Do The Do
TTITLE12=Act Right
TTITLE13=I Once Knew a Queen
TTITLE14=Just Girls Dancin'
TTITLE15=Love Me Til I'm Gone
EXTD=YEAR: 2009
EXTT0=
EXTT1=
EXTT2=
EXTT3=
EXTT4=
EXTT5=
EXTT6=
EXTT7=
EXTT8=
EXTT9=
EXTT10=
EXTT11=
EXTT12=
EXTT13=
EXTT14=
EXTT15=
PLAYORDER=
